{
  "title": "Manny (2014) DVDRip XviD AC3 Soup",
  "uid": 11589411,
  "size": 1672162930,
  "categoryP": "video",
  "categoryS": "movies",
  "magnet": "?xt=urn:btih:ed2ed6937d5b0aa2e3b29b55f0156c68074f8139&amp;dn=Manny+%282014%29+DVDRip+XviD+AC3+Soup&amp;tr=udp%3A%2F%2Ftracker.openbittorrent.com%3A80&amp;tr=udp%3A%2F%2Fopen.demonii.com%3A1337&amp;tr=udp%3A%2F%2Ftracker.coppersurfer.tk%3A6969&amp;tr=udp%3A%2F%2Fexodus.desync.com%3A6969",
  "seeders": 145,
  "leechers": 17,
  "uploader": "peaSoup",
  "files": -1,
  "time": 1417210246,
  "description": "Storyline\n\nA man who overcame insurmountable odds to become one of the most loved and respected athletes of all time. From a starving teenager who fought to feed his family, to a Congressman working tirelessly to improve the lives of his people, Manny is a hard hitting feature length documentary film that explores the many triumphs and tribulations of Filipino boxing sensation Manny Pacquiao.                           &lt;a href=&quot; http://i.imgur.com/cclir7T.jpg&quot; rel=&quot;nofollow&quot; target=&quot;_NEW&quot;&gt; http://i.imgur.com/cclir7T.jpg&lt;/a&gt;                                                      &lt;a href=&quot; http://i.imgur.com/7iCX0eW.jpg&quot; rel=&quot;nofollow&quot; target=&quot;_NEW&quot;&gt; http://i.imgur.com/7iCX0eW.jpg&lt;/a&gt;                                                      &lt;a href=&quot; http://i.imgur.com/zoQ8jZj.jpg&quot; rel=&quot;nofollow&quot; target=&quot;_NEW&quot;&gt; http://i.imgur.com/zoQ8jZj.jpg&lt;/a&gt;                                                      &lt;a href=&quot; http://i.imgur.com/fX39AMm.jpg&quot; rel=&quot;nofollow&quot; target=&quot;_NEW&quot;&gt; http://i.imgur.com/fX39AMm.jpg&lt;/a&gt;                                                       \nFormat                      : AVI\nFormat/Info                 : Audio Video Interleave\nFormat profile              : OpenDML\nFile size                   : 1.55 GiB\nDuration                    : 1h 24mn\nOverall bit rate            : 2 640 Kbps\nMovie name                  : Manny (2014) DVDRip XviD AC3 Soup\nWriting application         : Lavf55.33.100\nOriginal source form/Name   : UPD1_73551\n\nVideo\nID                          : 0\nFormat                      : MPEG-4 Visual\nFormat profile              : Advanced Simple@L5\nFormat settings, BVOP       : 2\nFormat settings, QPel       : No\nFormat settings, GMC        : No warppoints\nFormat settings, Matrix     : Default (MPEG)\nMuxing mode                 : Packed bitstream\nCodec ID                    : XVID\nCodec ID/Hint               : XviD\nDuration                    : 1h 24mn\nBit rate                    : 2 181 Kbps\nWidth                       : 720 pixels\nHeight                      : 404 pixels\nDisplay aspect ratio        : 16:9\nFrame rate                  : 25.000 fps\nColor space                 : YUV\nChroma subsampling          : 4:2:0\nBit depth                   : 8 bits\nScan type                   : Progressive\nCompression mode            : Lossy\nBits/(Pixel*Frame)          : 0.300\nStream size                 : 1.28 GiB (83%)\nWriting library             : XviD 64\n\nAudio\nID                          : 1\nFormat                      : AC-3\nFormat/Info                 : Audio Coding 3\nMode extension              : CM (complete main)\nFormat settings, Endianness : Big\nCodec ID                    : 2000\nDuration                    : 1h 24mn\nBit rate mode               : Constant\nBit rate                    : 448 Kbps\nChannel(s)                  : 6 channels\nChannel positions           : Front: L C R, Side: L R, LFE\nSampling rate               : 48.0 KHz\nBit depth                   : 16 bits\nCompression mode            : Lossy\nStream size                 : 270 MiB (17%)\nAlignment                   : Aligned on interleaves\nInterleave, duration        : 32 ms (0.80 video frame)",
  "parsed": {
    "xt": "urn:btih:ed2ed6937d5b0aa2e3b29b55f0156c68074f8139",
    "dn": "Manny (2014) DVDRip XviD AC3 Soup",
    "tr": [
      "udp://exodus.desync.com:6969",
      "udp://open.demonii.com:1337",
      "udp://tracker.coppersurfer.tk:6969",
      "udp://tracker.openbittorrent.com:80"
    ],
    "infoHash": "ed2ed6937d5b0aa2e3b29b55f0156c68074f8139",
    "infoHashBuffer": {
      "type": "Buffer",
      "data": [
        237,
        46,
        214,
        147,
        125,
        91,
        10,
        162,
        227,
        178,
        155,
        85,
        240,
        21,
        108,
        104,
        7,
        79,
        129,
        57
      ]
    },
    "name": "Manny (2014) DVDRip XviD AC3 Soup",
    "announce": [
      "udp://exodus.desync.com:6969",
      "udp://open.demonii.com:1337",
      "udp://tracker.coppersurfer.tk:6969",
      "udp://tracker.openbittorrent.com:80"
    ],
    "urlList": []
  },
  "previous": 162,
  "peers": 7,
  "last_updated": "2016-12-25T17:23:55.071Z"
}